<?xml version="1.0" encoding="UTF-8"?>
<svg version="1.1" xmlns="http://www.w3.org/2000/svg" width="1024" height="1024">
<path d="M0 0 C337.92 0 675.84 0 1024 0 C1024 337.92 1024 675.84 1024 1024 C686.08 1024 348.16 1024 0 1024 C0 686.08 0 348.16 0 0 Z " fill="#FBFBFB" transform="translate(0,0)"/>
<path d="M0 0 C0.80743652 0.00465271 1.61487305 0.00930542 2.44677734 0.01409912 C14.36800832 0.09448087 25.94248258 0.48959756 37.5625 3.375 C38.37428711 3.56835938 39.18607422 3.76171875 40.02246094 3.9609375 C82.43671491 14.3050988 120.92694385 39.90041203 143.87548828 77.52783203 C151.5625 90.53157468 151.5625 90.53157468 151.5625 93.375 C152.2225 93.375 152.8825 93.375 153.5625 93.375 C153.66433594 92.82972656 153.76617188 92.28445313 153.87109375 91.72265625 C162.45509097 62.57586344 195.98747321 35.50965778 221.4765625 21.30859375 C262.64138866 -0.91385225 312.04679341 -6.35418836 356.96264648 6.9074707 C399.74727203 20.19404754 436.32578349 48.43920431 457.58984375 88.1171875 C482.47276199 135.71462986 484.26745272 190.66678256 469.03515625 241.66015625 C457.26517383 278.50053152 434.58461295 312.06850309 408.5625 340.375 C407.39115335 341.7042238 406.22425407 343.03738407 405.0625 344.375 C403.89620955 345.70866243 402.72952821 347.0419831 401.5625 348.375 C400.92183594 349.10976563 400.28117188 349.84453125 399.62109375 350.6015625 C394.48969469 356.40391797 389.09414637 361.88155451 383.59130859 367.3269043 C379.91795496 370.97571548 376.41948823 374.70397632 373.0625 378.6484375 C369.29858561 382.98085979 365.16526023 386.89279622 360.8125 390.625 C357.4040922 393.55781601 354.21879812 396.67599807 351.0625 399.875 C347.44903818 403.53198273 343.76588263 407.02922596 339.85546875 410.3671875 C336.69413388 413.13537511 333.63320027 416.00702479 330.5625 418.875 C326.30272603 422.84937414 322.02005922 426.77536477 317.60546875 430.578125 C315.47048594 432.45593015 313.38347666 434.38160565 311.29858398 436.31469727 C307.09306864 440.21257283 302.86710792 443.99202516 298.375 447.5625 C291.1034594 453.41954783 284.44212679 459.93318941 277.68164062 466.36474609 C274.47275215 469.40875389 271.24040401 472.4271001 268 475.4375 C267.4239502 475.97294434 266.84790039 476.50838867 266.25439453 477.06005859 C262.65812772 480.39110468 258.99820046 483.63530916 255.28515625 486.8359375 C252.89380797 488.97242553 250.66811212 491.25720525 248.42407227 493.54638672 C246.68414687 495.25550688 244.89254953 496.83161051 243.03125 498.40625 C237.60672725 503.12214144 232.6054025 508.26010501 227.5625 513.375 C221.94270908 519.07501908 216.32880042 524.71734035 210.24267578 529.92626953 C204.41673742 534.94968107 199.24206259 540.64721505 194.2421875 546.4765625 C192.06910777 548.93264797 189.74279626 551.20731665 187.40332031 553.50341797 C185.64011978 555.29608313 183.99081949 557.14089981 182.3515625 559.046875 C178.47833049 563.50037417 174.47873988 567.8240207 170.4375 572.125 C169.40302734 573.23681641 169.40302734 573.23681641 168.34765625 574.37109375 C158.12829615 585.25480996 158.12829615 585.25480996 153.64453125 585.46484375 C147.16420304 585.02984754 143.87975819 583.15014921 139.5625 578.375 C137.29907618 575.67309002 135.08700213 572.93636491 132.890625 570.1796875 C130.01803478 566.71908384 126.89043878 563.61579381 123.671875 560.48046875 C121.74104196 558.55321133 119.95577187 556.57561436 118.1875 554.5 C114.4940206 550.18807754 110.46477403 546.24427934 106.40625 542.28125 C104.30746051 540.18761272 102.36121039 538.00573004 100.43359375 535.75390625 C96.07016268 530.71734844 91.36616804 526.02852375 86.6472168 521.3293457 C85.12758332 519.8150742 83.61337483 518.2955257 82.09960938 516.77539062 C77.30952254 511.98236851 72.46290625 507.31557778 67.31225586 502.90649414 C64.59392764 500.52724579 62.08303537 497.96016448 59.5625 495.375 C55.74914532 491.51464033 51.88720612 487.80592071 47.7578125 484.28125 C40.64422855 478.10433013 33.7527563 471.65066921 27.1484375 464.93359375 C24.81280663 462.63823238 22.33430447 460.52122784 19.85546875 458.3828125 C17.09344206 455.96427465 14.38848859 453.48612266 11.6875 451 C7.99710926 447.60449427 4.29544545 444.22384817 0.5625 440.875 C-5.66319011 435.28580217 -11.81803078 429.61975942 -17.97851562 423.95898438 C-23.11223745 419.24274437 -28.24997157 414.53217409 -33.4375 409.875 C-38.04443122 405.73831375 -42.61683735 401.56538614 -47.17285156 397.37280273 C-49.18393223 395.52313222 -51.20179795 393.68222744 -53.22631836 391.84716797 C-62.30872557 383.56728635 -71.04277707 374.95589545 -79.73193359 366.26586914 C-82.19218387 363.80782032 -84.66036079 361.3579178 -87.12890625 358.90820312 C-95.03106769 351.03382202 -102.58543832 343.18974736 -109.4375 334.375 C-110.37014948 333.28299494 -111.31150568 332.19829699 -112.265625 331.125 C-149.04527391 289.36230189 -172.9525246 232.61752021 -172.8125 176.875 C-172.81195618 176.05138977 -172.81141235 175.22777954 -172.81085205 174.37921143 C-172.67144973 128.1679005 -156.53103315 84.90384322 -124.4375 51.375 C-123.34115234 50.18390625 -123.34115234 50.18390625 -122.22265625 48.96875 C-91.28391744 16.43416942 -44.30581308 -0.45864517 0 0 Z " fill="#E73532" transform="translate(359.4375,220.625)"/>
<path d="M0 0 C0.80743652 0.00465271 1.61487305 0.00930542 2.44677734 0.01409912 C14.36800832 0.09448087 25.94248258 0.48959756 37.5625 3.375 C38.37428711 3.56835938 39.18607422 3.76171875 40.02246094 3.9609375 C82.43671491 14.3050988 120.92694385 39.90041203 143.87548828 77.52783203 C151.5625 90.53157468 151.5625 90.53157468 151.5625 93.375 C152.2225 93.375 152.8825 93.375 153.5625 93.375 C153.66433594 92.82972656 153.76617188 92.28445313 153.87109375 91.72265625 C162.45509097 62.57586344 195.98747321 35.50965778 221.4765625 21.30859375 C262.64138866 -0.91385225 312.04679341 -6.35418836 356.96264648 6.9074707 C399.74727203 20.19404754 436.32578349 48.43920431 457.58984375 88.1171875 C482.47276199 135.71462986 484.26745272 190.66678256 469.03515625 241.66015625 C457.26517383 278.50053152 434.58461295 312.06850309 408.5625 340.375 C407.39115335 341.7042238 406.22425407 343.03738407 405.0625 344.375 C403.89620955 345.70866243 402.72952821 347.0419831 401.5625 348.375 C400.92183594 349.10976563 400.28117188 349.84453125 399.62109375 350.6015625 C394.48969469 356.40391797 389.09414637 361.88155451 383.59130859 367.3269043 C379.91795496 370.97571548 376.41948823 374.70397632 373.0625 378.6484375 C369.29858561 382.98085979 365.16526023 386.89279622 360.8125 390.625 C357.4040922 393.55781601 354.21879812 396.67599807 351.0625 399.875 C347.44903818 403.53198273 343.76588263 407.02922596 339.85546875 410.3671875 C336.69413388 413.13537511 333.63320027 416.00702479 330.5625 418.875 C326.30272603 422.84937414 322.02005922 426.77536477 317.60546875 430.578125 C315.47048594 432.45593015 313.38347666 434.38160565 311.29858398 436.31469727 C307.09306864 440.21257283 302.86710792 443.99202516 298.375 447.5625 C291.1034594 453.41954783 284.44212679 459.93318941 277.68164062 466.36474609 C274.47275215 469.40875389 271.24040401 472.4271001 268 475.4375 C267.4239502 475.97294434 266.84790039 476.50838867 266.25439453 477.06005859 C262.65812772 480.39110468 258.99820046 483.63530916 255.28515625 486.8359375 C252.89380797 488.97242553 250.66811212 491.25720525 248.42407227 493.54638672 C246.68414687 495.25550688 244.89254953 496.83161051 243.03125 498.40625 C237.60672725 503.12214144 232.6054025 508.26010501 227.5625 513.375 C221.94270908 519.07501908 216.32880042 524.71734035 210.24267578 529.92626953 C204.41673742 534.94968107 199.24206259 540.64721505 194.2421875 546.4765625 C192.06910777 548.93264797 189.74279626 551.20731665 187.40332031 553.50341797 C185.64011978 555.29608313 183.99081949 557.14089981 182.3515625 559.046875 C178.47833049 563.50037417 174.47873988 567.8240207 170.4375 572.125 C169.40302734 573.23681641 169.40302734 573.23681641 168.34765625 574.37109375 C158.12829615 585.25480996 158.12829615 585.25480996 153.64453125 585.46484375 C147.16420304 585.02984754 143.87975819 583.15014921 139.5625 578.375 C137.29907618 575.67309002 135.08700213 572.93636491 132.890625 570.1796875 C130.01803478 566.71908384 126.89043878 563.61579381 123.671875 560.48046875 C121.74104196 558.55321133 119.95577187 556.57561436 118.1875 554.5 C114.4940206 550.18807754 110.46477403 546.24427934 106.40625 542.28125 C104.30746051 540.18761272 102.36121039 538.00573004 100.43359375 535.75390625 C96.07016268 530.71734844 91.36616804 526.02852375 86.6472168 521.3293457 C85.12758332 519.8150742 83.61337483 518.2955257 82.09960938 516.77539062 C77.30952254 511.98236851 72.46290625 507.31557778 67.31225586 502.90649414 C64.59392764 500.52724579 62.08303537 497.96016448 59.5625 495.375 C55.74914532 491.51464033 51.88720612 487.80592071 47.7578125 484.28125 C40.64422855 478.10433013 33.7527563 471.65066921 27.1484375 464.93359375 C24.81280663 462.63823238 22.33430447 460.52122784 19.85546875 458.3828125 C17.09344206 455.96427465 14.38848859 453.48612266 11.6875 451 C7.99710926 447.60449427 4.29544545 444.22384817 0.5625 440.875 C-5.66319011 435.28580217 -11.81803078 429.61975942 -17.97851562 423.95898438 C-23.11223745 419.24274437 -28.24997157 414.53217409 -33.4375 409.875 C-38.04443122 405.73831375 -42.61683735 401.56538614 -47.17285156 397.37280273 C-49.18393223 395.52313222 -51.20179795 393.68222744 -53.22631836 391.84716797 C-62.30872557 383.56728635 -71.04277707 374.95589545 -79.73193359 366.26586914 C-82.19218387 363.80782032 -84.66036079 361.3579178 -87.12890625 358.90820312 C-95.03106769 351.03382202 -102.58543832 343.18974736 -109.4375 334.375 C-110.37014948 333.28299494 -111.31150568 332.19829699 -112.265625 331.125 C-149.04527391 289.36230189 -172.9525246 232.61752021 -172.8125 176.875 C-172.81195618 176.05138977 -172.81141235 175.22777954 -172.81085205 174.37921143 C-172.67144973 128.1679005 -156.53103315 84.90384322 -124.4375 51.375 C-123.34115234 50.18390625 -123.34115234 50.18390625 -122.22265625 48.96875 C-91.28391744 16.43416942 -44.30581308 -0.45864517 0 0 Z M-31.4375 29.375 C-32.57227783 29.58382812 -32.57227783 29.58382812 -33.72998047 29.796875 C-51.00432863 33.10399594 -66.54317857 40.13357517 -81.4375 49.375 C-82.32018555 49.92099854 -82.32018555 49.92099854 -83.22070312 50.47802734 C-110.63475373 67.82429104 -133.82158561 98.48518236 -141.10058594 130.27050781 C-143.84679541 142.89697716 -146.56109397 155.46805707 -146.640625 168.43359375 C-146.64632507 169.18101334 -146.65202515 169.92843292 -146.65789795 170.69850159 C-146.6672838 172.27416601 -146.67385616 173.8498495 -146.67773438 175.42553711 C-146.68734904 177.77560082 -146.71839534 180.12475341 -146.75 182.47460938 C-146.82433974 193.08854057 -145.65658066 203.00267561 -143.4375 213.375 C-143.24397949 214.29015381 -143.05045898 215.20530762 -142.85107422 216.14819336 C-142.36157516 218.32192835 -141.82616814 220.47275288 -141.25 222.625 C-141.0427832 223.40037109 -140.83556641 224.17574219 -140.62207031 224.97460938 C-132.13402034 255.49261974 -117.14370567 282.75843802 -97.4375 307.375 C-97.00663086 307.91769531 -96.57576172 308.46039062 -96.13183594 309.01953125 C-91.57724361 314.74699585 -86.83490833 320.28100853 -81.89672852 325.68066406 C-80.34673999 327.37883475 -78.80400978 329.08368639 -77.27172852 330.79785156 C-68.95530056 340.02644766 -60.17781084 348.78641715 -51.38452148 357.55834961 C-48.7415134 360.1959693 -46.10393019 362.8389299 -43.46679688 365.48242188 C-41.76594575 367.1826126 -40.06478466 368.88249331 -38.36328125 370.58203125 C-37.58600174 371.36133499 -36.80872223 372.14063873 -36.00788879 372.94355774 C-31.85352478 377.0803372 -27.61974603 381.0615153 -23.17201233 384.8820343 C-20.58009237 387.11300581 -18.07622793 389.43124265 -15.5625 391.75 C-6.56854988 400.02443411 2.47488632 408.24730209 11.8203125 416.125 C18.25885171 421.56770711 24.43282507 427.09692617 30.328125 433.13671875 C32.98088476 435.7941162 35.7812111 438.22474082 38.6328125 440.6640625 C40.69558521 442.49299863 42.6284072 444.41080458 44.5625 446.375 C47.69659236 449.55160912 50.94579403 452.50921369 54.32421875 455.421875 C62.29373222 462.37607523 69.9766315 469.6707416 77.69555664 476.90063477 C80.5979922 479.61715789 83.50701956 482.32432636 86.44238281 485.00537109 C94.04313708 491.95144332 101.42704778 499.08256408 108.69433594 506.37646484 C110.4539348 508.14148544 112.21890397 509.90101133 113.984375 511.66015625 C119.20250562 516.8755427 124.33248517 522.09775606 129.12158203 527.71582031 C131.31197098 530.2379964 133.6723118 532.54105152 136.0625 534.875 C139.92416876 538.69423284 143.61400395 542.57577466 147.125 546.71875 C148.53886395 548.34776716 150.01947856 549.86871717 151.5625 551.375 C154.68574544 549.98870756 156.80440707 548.37988429 159.20703125 545.9609375 C159.88443359 545.28160156 160.56183594 544.60226562 161.25976562 543.90234375 C161.95779297 543.19207031 162.65582031 542.48179687 163.375 541.75 C164.06142578 541.06292969 164.74785156 540.37585938 165.45507812 539.66796875 C168.65280645 536.44301284 171.74137603 533.1771264 174.70214844 529.7331543 C179.04257132 524.749918 183.6945074 520.09941473 188.37109375 515.43359375 C189.29664566 514.50708511 190.22219757 513.58057648 191.17579651 512.62599182 C193.12314855 510.67717639 195.07226913 508.73015263 197.02270508 506.78442383 C199.50146395 504.31136139 201.97570431 501.83383467 204.4486227 499.35493374 C206.83700145 496.96203799 209.2292208 494.57299682 211.62109375 492.18359375 C212.4984166 491.30424667 213.37573944 490.4248996 214.27964783 489.51890564 C218.70673061 485.10848153 223.19177392 480.83657638 227.942276 476.77503967 C229.91756072 475.06819113 231.74970769 473.2525349 233.5625 471.375 C236.7840855 468.10297872 240.14842145 465.08183945 243.62890625 462.08984375 C245.51744597 460.41495701 247.29405648 458.67552413 249.0625 456.875 C252.00514324 453.88606799 255.08605707 451.12847702 258.26171875 448.390625 C261.07023529 445.93019285 263.8169368 443.40505722 266.5625 440.875 C272.19671357 435.6931241 277.91229279 430.62831408 283.7421875 425.66796875 C290.49727533 419.91412169 297.14834616 414.08411992 303.6484375 408.04296875 C305.88254415 405.99753331 308.13633572 403.99437944 310.421875 402.0078125 C314.50914841 398.44461042 318.48714448 394.77637692 322.4375 391.0625 C323.13294922 390.41023438 323.82839844 389.75796875 324.54492188 389.0859375 C329.18047395 384.72154586 333.72054602 380.28686306 338.15625 375.71875 C340.15796809 373.76902459 342.19409365 371.94431464 344.30859375 370.12109375 C348.7729736 366.2455834 352.95737356 362.12775608 357.125 357.9375 C358.19911133 356.86918945 358.19911133 356.86918945 359.29492188 355.77929688 C363.29668362 351.77025258 367.11188918 347.66349925 370.80932617 343.37329102 C373.91213015 339.83667348 377.18918123 336.46486759 380.4375 333.0625 C386.44943445 326.71412792 392.1459458 320.24241693 397.5625 313.375 C398.47715243 312.26136345 399.39395733 311.14949251 400.3125 310.0390625 C411.81979519 296.04544755 422.11092907 281.2207604 430.59228516 265.19677734 C431.50121391 263.4900772 432.44285737 261.80091348 433.38671875 260.11328125 C454.73390869 220.34514539 458.80944886 169.02163027 445.83984375 125.9765625 C438.38216607 102.81653835 426.1686955 84.83926639 409.5625 67.375 C408.59957031 66.31539062 408.59957031 66.31539062 407.6171875 65.234375 C383.74454682 39.81156285 346.43849202 27.37528175 312.30859375 26.14453125 C273.1568467 25.28837188 234.57238117 37.63588413 205.90234375 64.8203125 C193.25804538 77.02997306 183.70546969 89.82159491 175.5625 105.375 C175.20913574 106.04466797 174.85577148 106.71433594 174.49169922 107.40429688 C170.05256712 115.86876104 166.23321744 124.37163203 162.984375 133.36328125 C161.49341047 136.52134073 160.63539973 137.78247532 157.5625 139.375 C155.125 139.80859375 155.125 139.80859375 152.5625 139.8125 C151.716875 139.83183594 150.87125 139.85117187 150 139.87109375 C146.72694901 139.20494395 145.73830111 137.88606607 143.5625 135.375 C142.13378906 132.68041992 142.13378906 132.68041992 140.828125 129.60546875 C140.34061768 128.47641113 139.85311035 127.34735352 139.35083008 126.18408203 C138.84318115 124.98895996 138.33553223 123.79383789 137.8125 122.5625 C129.00885475 102.2574427 119.02793125 84.39119447 103.5625 68.375 C102.76070312 67.51003906 101.95890625 66.64507812 101.1328125 65.75390625 C77.11533389 40.51586725 40.90903177 27.21411724 6.51171875 26.171875 C-6.39058466 25.98165108 -18.75399596 27.0166967 -31.4375 29.375 Z " fill="#9F0B0C" transform="translate(359.4375,220.625)"/>
<path d="M0 0 C0.66 0.66 1.32 1.32 2 2 C-2.29 6.29 -6.58 10.58 -11 15 C-11.66 14.67 -12.32 14.34 -13 14 C-12.56429687 13.57589844 -12.12859375 13.15179687 -11.6796875 12.71484375 C-7.54991517 8.64764373 -3.71958871 4.44536212 0 0 Z " fill="#970608" transform="translate(753,538)"/>
</svg>
